<?xml version="1.0" standalone="no"?>
<!DOCTYPE svg PUBLIC "-//W3C//DTD SVG 20010904//EN"
 "http://www.w3.org/TR/2001/REC-SVG-20010904/DTD/svg10.dtd">
<svg version="1.0" xmlns="http://www.w3.org/2000/svg"
 width="999.000000pt" height="714.000000pt" viewBox="0 0 999.000000 714.000000"
 preserveAspectRatio="xMidYMid meet">
<metadata>
Created by potrace 1.16, written by Peter Selinger 2001-2019
</metadata>
<g transform="translate(0.000000,714.000000) scale(0.100000,-0.100000)"
fill="#000000" stroke="none">
<path d="M4823 5914 c3 -5 -11 -8 -35 -6 -22 3 -68 -3 -103 -13 l-62 -16 51
-55 c29 -30 59 -54 67 -54 8 0 32 14 53 31 32 27 46 32 98 33 55 1 62 -1 86
-30 15 -17 34 -45 43 -61 14 -25 25 -32 60 -36 24 -3 66 -13 93 -23 42 -15 53
-16 80 -4 17 7 62 15 100 18 75 4 116 23 116 53 0 22 -19 32 -86 48 -28 7 -77
28 -108 47 -54 32 -61 34 -152 34 -53 0 -105 5 -117 11 -12 7 -51 13 -87 14
-36 0 -74 5 -84 10 -12 5 -17 5 -13 -1z"/>
<path d="M5665 5889 c19 -17 35 -37 35 -44 0 -24 43 -67 87 -86 69 -30 85 -98
24 -107 -28 -4 -22 -23 12 -40 22 -11 31 -10 56 3 45 23 56 19 97 -30 31 -39
42 -45 74 -45 44 0 62 -17 87 -85 17 -47 23 -52 89 -85 94 -46 101 -52 109
-107 11 -72 33 -119 69 -144 30 -20 76 -76 76 -91 0 -4 -18 -9 -40 -13 -22 -4
-40 -10 -40 -14 0 -4 21 -4 48 0 26 4 84 8 129 8 77 1 87 -1 160 -40 43 -23
108 -63 146 -91 l67 -50 -24 -29 c-14 -16 -27 -38 -31 -49 -9 -28 -19 -26 -98
26 -119 79 -183 104 -257 103 -61 -1 -140 -16 -96 -18 14 -1 17 -6 12 -27 -5
-17 0 -33 14 -51 35 -45 18 -104 -35 -117 -29 -8 -34 -26 -6 -26 25 0 51 -36
51 -70 0 -14 9 -53 20 -87 17 -55 18 -67 6 -100 -12 -36 -15 -38 -62 -41 -73
-5 -79 -22 -8 -24 286 -9 686 16 777 48 l38 14 85 -65 c89 -68 94 -71 94 -56
0 25 -252 196 -460 312 -78 43 -85 49 -82 76 6 53 36 123 66 152 l31 30 75
-47 c174 -109 259 -175 271 -209 6 -18 21 -41 34 -51 13 -10 28 -36 34 -58 11
-42 61 -97 99 -109 12 -3 31 -23 41 -44 48 -94 178 -211 278 -250 20 -8 30
-18 26 -26 -9 -26 -178 -167 -242 -202 -77 -44 -213 -87 -318 -103 -43 -6
-105 -15 -138 -21 -117 -18 -387 -39 -510 -39 -77 0 -125 -4 -125 -10 0 -17
227 -9 476 16 l60 6 12 -40 c19 -62 15 -81 -24 -120 -20 -20 -59 -81 -87 -135
-41 -82 -55 -102 -83 -113 -42 -17 -50 -33 -58 -114 -9 -76 -36 -120 -96 -150
-51 -26 -86 -81 -70 -111 l12 -22 22 26 c11 14 40 37 63 51 23 14 61 52 85 83
23 32 69 86 102 120 47 48 67 80 94 145 28 70 85 263 106 359 5 24 11 27 93
38 146 21 253 51 359 101 86 41 115 62 201 144 l100 95 54 -14 c71 -19 256
-19 338 0 122 29 238 104 312 201 42 55 47 58 118 76 41 10 85 25 99 34 13 9
38 47 55 84 18 38 37 69 43 70 21 0 129 63 214 123 152 109 383 355 493 526
28 44 57 52 182 55 106 2 149 15 143 44 -2 12 -20 20 -65 27 -34 6 -64 13 -68
16 -5 6 49 22 155 47 28 7 35 13 35 32 0 31 -45 42 -135 31 -36 -5 -66 -7 -68
-6 -1 1 34 25 79 54 93 59 102 84 33 89 -32 2 -58 -6 -117 -36 l-76 -39 35 49
c41 61 44 88 9 88 -39 0 -127 -83 -187 -177 l-33 -51 -92 5 c-83 5 -93 4 -99
-12 -11 -28 37 -62 106 -77 33 -6 60 -17 60 -23 0 -42 -285 -346 -415 -442
-83 -62 -222 -143 -244 -143 -11 0 -40 -9 -66 -20 -26 -11 -48 -20 -51 -20 -2
0 -3 26 -3 58 1 60 -22 124 -55 151 -8 7 -27 38 -41 69 -14 31 -37 71 -51 89
-20 26 -23 37 -14 52 15 30 12 108 -6 144 -9 18 -30 47 -45 65 -16 18 -29 38
-29 45 0 17 -79 97 -105 107 -12 4 -48 11 -81 15 -32 4 -83 14 -111 22 -58 16
-151 20 -228 11 -27 -4 -79 -10 -115 -13 -114 -12 -225 -64 -330 -156 -51 -44
-68 -69 -120 -173 -86 -174 -121 -344 -89 -435 6 -18 10 -34 8 -36 -3 -2 -36
18 -74 45 -126 89 -247 161 -260 157 -6 -3 -38 15 -71 39 -78 59 -201 131
-239 140 -16 4 -37 12 -45 19 -8 7 -34 18 -57 24 -41 11 -81 50 -96 93 -9 25
19 48 59 48 19 0 34 3 34 8 0 4 -16 29 -35 56 -23 33 -50 55 -83 71 -30 14
-63 41 -88 71 -51 64 -53 65 -91 59 -28 -5 -40 2 -117 71 -50 44 -86 84 -86
95 0 30 36 42 101 35 36 -4 59 -3 59 3 0 15 -156 96 -279 146 -94 38 -277 95
-304 95 -4 0 8 -14 28 -31z m4069 -346 c-10 -16 -37 -54 -61 -87 -60 -81 -57
-98 8 -50 58 43 152 92 192 99 20 4 37 5 37 1 0 -3 -45 -35 -100 -71 -55 -37
-102 -70 -105 -75 -10 -17 11 -18 70 -4 64 15 185 19 185 6 0 -4 -41 -17 -91
-29 -94 -22 -148 -48 -132 -64 4 -4 44 -14 87 -20 101 -15 81 -29 -44 -29
-136 0 -163 -13 -224 -107 -111 -171 -327 -390 -507 -512 -77 -52 -243 -130
-254 -119 -3 3 5 37 17 77 20 66 25 74 62 93 146 75 248 152 409 311 97 96
183 191 212 235 27 39 56 72 64 72 33 0 -13 20 -49 20 -44 1 -142 32 -147 45
-2 7 32 9 98 7 65 -3 99 -1 96 5 -14 22 100 169 158 205 39 24 41 23 19 -9z
m-1947 -147 c-67 -23 -100 -42 -215 -123 -52 -37 -68 -56 -122 -152 -117 -209
-139 -350 -79 -513 25 -68 25 -91 0 -61 -24 29 -61 166 -61 226 0 83 37 207
99 332 53 107 67 126 127 178 99 86 204 134 294 135 14 0 -5 -10 -43 -22z
m383 -200 c151 -26 221 -58 325 -151 l40 -36 -49 5 c-27 4 -60 13 -73 21 -21
14 -23 14 -23 0 0 -22 59 -45 113 -45 48 0 50 -2 90 -71 l26 -45 -47 9 c-116
24 -219 -43 -229 -150 -9 -90 30 -174 98 -208 16 -9 54 -18 86 -21 46 -4 66
-1 97 15 l39 20 -7 -52 c-19 -157 -90 -276 -214 -357 -104 -68 -179 -91 -323
-97 -140 -7 -227 11 -334 66 -84 43 -191 148 -225 221 -15 32 -30 50 -41 50
-26 0 -80 49 -95 87 -20 46 -17 90 7 129 25 42 47 54 94 54 22 0 34 4 30 10
-3 6 -17 10 -30 10 -37 0 -41 36 -16 138 47 187 141 285 351 362 147 54 178
58 310 36z m429 -344 c57 -28 94 -83 99 -146 6 -70 -12 -120 -52 -151 -40 -31
-81 -39 -141 -30 -85 12 -145 90 -145 189 0 116 133 193 239 138z m-1885 -44
c80 -43 143 -106 150 -150 28 -181 29 -199 18 -210 -17 -17 -46 13 -62 65 -7
23 -25 68 -41 99 -16 32 -29 64 -29 72 0 9 -20 38 -45 66 -45 51 -71 90 -59
90 3 0 34 -15 68 -32z m2086 -220 c-22 -62 -40 -156 -40 -209 0 -39 8 -34
-111 -65 -14 -4 -13 6 7 75 13 44 24 100 25 123 4 64 15 81 72 104 29 12 55
22 59 23 3 0 -2 -23 -12 -51z m-2144 -50 c20 -44 23 -62 18 -104 -3 -30 -2
-60 5 -72 10 -19 7 -20 -34 -24 -35 -2 -45 0 -46 12 -1 8 -2 66 -3 128 -2 103
-1 112 16 112 13 0 27 -17 44 -52z m429 -57 c22 -14 64 -39 92 -57 l53 -32
-65 -16 c-35 -9 -75 -16 -88 -16 -36 0 -70 53 -75 118 l-5 54 24 -13 c13 -6
42 -24 64 -38z"/>
<path d="M7920 4914 c-185 -80 -149 -354 53 -396 46 -10 61 -9 100 6 85 32
127 95 127 188 -1 153 -148 259 -280 202z m176 -37 c115 -72 111 -263 -7 -324
-49 -25 -77 -28 -132 -12 -53 14 -101 60 -127 121 -20 47 -22 58 -11 98 18 66
46 105 94 129 57 28 127 24 183 -12z"/>
<path d="M8024 4406 c-67 -21 -122 -57 -159 -105 -45 -58 -48 -107 -7 -152 27
-30 32 -31 137 -40 61 -4 130 -16 155 -24 89 -33 198 6 238 85 12 24 22 55 22
68 0 32 -26 85 -57 117 -55 54 -230 82 -329 51z"/>
<path d="M4026 5564 c-97 -76 -98 -77 -75 -90 49 -27 100 -8 141 53 26 38 52
113 40 113 -4 0 -52 -34 -106 -76z"/>
<path d="M830 5560 c-16 -30 -5 -79 26 -111 l25 -26 -31 -6 c-34 -7 -43 -24
-107 -197 -41 -111 -53 -155 -44 -167 9 -12 80 -66 121 -91 32 -19 42 -20 105
-11 39 5 126 15 195 23 356 42 472 68 514 114 14 17 23 19 37 11 22 -11 166 5
241 27 43 13 51 12 98 -6 65 -26 110 -25 144 1 19 15 26 30 26 53 0 33 0 33
68 44 37 7 114 16 172 22 58 5 129 13 158 16 28 4 52 4 52 0 0 -4 -11 -28 -24
-54 -33 -66 -48 -146 -37 -209 4 -29 6 -53 4 -53 -15 0 -123 100 -138 128 -10
17 -24 32 -30 32 -28 0 -33 -139 -10 -239 16 -64 15 -64 -9 -90 -53 -55 -68
-130 -41 -205 12 -36 12 -43 -13 -107 -26 -67 -28 -69 -57 -64 -44 8 -114 -31
-137 -76 -26 -52 -35 -114 -26 -189 10 -82 32 -142 74 -203 25 -35 34 -58 34
-90 1 -87 57 -177 133 -212 21 -10 34 -21 30 -25 -4 -4 -78 -24 -163 -44 -85
-20 -177 -43 -205 -51 -27 -8 -90 -26 -140 -40 -118 -34 -416 -110 -530 -136
-49 -11 -119 -27 -155 -35 -36 -8 -126 -28 -200 -44 -162 -35 -325 -77 -351
-91 -11 -5 -20 -14 -20 -19 -1 -6 -2 -16 -3 -22 0 -7 -25 -18 -54 -24 -49 -11
-53 -11 -49 4 3 10 16 57 31 106 27 93 35 211 16 247 -15 26 -54 25 -68 -3 -9
-20 -11 -16 -12 27 0 28 -11 79 -23 115 -18 54 -26 66 -46 68 -30 5 -51 -20
-52 -62 0 -29 -1 -28 -23 19 -28 61 -56 88 -88 83 -19 -2 -24 -10 -26 -41 -3
-32 16 -179 34 -267 3 -14 -9 0 -26 31 -64 115 -157 191 -195 159 -24 -20 -18
-51 26 -125 89 -153 153 -321 142 -376 -9 -45 -25 -31 -58 52 -43 104 -62 137
-85 144 -64 20 -68 -95 -8 -216 21 -41 51 -91 69 -112 58 -70 157 -103 235
-78 16 5 98 31 182 56 l153 47 35 -31 c19 -17 44 -31 55 -31 11 0 93 22 182
49 89 27 225 65 302 86 222 58 982 274 1039 295 28 10 105 33 171 49 66 17
201 57 300 90 99 32 237 75 306 95 69 20 145 42 168 51 61 21 81 8 80 -53 -1
-57 54 -224 118 -364 46 -99 68 -123 43 -47 -12 36 -12 44 4 70 13 22 16 40
11 65 -4 23 0 53 10 84 9 27 14 59 10 70 -4 11 -4 33 0 49 6 28 6 29 48 16
l42 -12 6 -69 c3 -38 13 -86 22 -106 11 -24 17 -63 17 -107 0 -55 5 -80 25
-117 14 -26 25 -53 25 -61 0 -31 31 -73 53 -73 29 0 48 -16 76 -62 12 -20 38
-46 58 -58 35 -20 35 -22 30 -73 -6 -63 8 -87 71 -124 32 -19 50 -39 64 -70
10 -24 23 -43 27 -43 4 0 20 -11 35 -25 28 -26 35 -72 14 -93 -16 -16 5 -32
41 -32 28 0 122 -50 116 -61 -6 -9 22 -39 37 -39 17 0 -2 62 -31 105 -34 49
-61 128 -60 175 1 19 -6 63 -15 96 -21 80 -20 84 7 84 28 0 59 -32 77 -80 7
-19 21 -42 31 -51 9 -9 25 -34 34 -55 18 -44 76 -108 117 -130 17 -9 36 -33
49 -63 21 -50 50 -83 82 -94 12 -5 17 -1 17 11 0 26 20 42 51 42 27 0 59 -22
59 -41 0 -5 16 -9 35 -9 26 0 44 -8 68 -30 83 -79 136 -106 153 -79 4 7 22 9
46 6 30 -4 51 1 85 19 64 34 113 32 174 -8 27 -18 52 -43 55 -55 10 -38 29
-46 90 -38 40 5 54 10 50 20 -2 7 2 16 10 19 8 3 14 14 14 25 0 11 4 23 10 26
5 3 28 65 51 138 23 73 50 147 61 165 11 17 17 32 14 32 -4 0 -34 -12 -68 -26
-58 -24 -71 -26 -183 -22 l-120 3 -91 48 c-96 50 -155 100 -138 117 6 6 42 -2
101 -23 l91 -32 52 19 c41 15 56 16 76 7 40 -18 52 -13 80 28 31 47 40 51 85
42 26 -6 45 -2 83 17 58 28 136 38 188 24 35 -10 40 -8 71 23 67 67 164 55
205 -25 12 -24 22 -57 22 -72 0 -15 5 -28 11 -28 7 0 9 10 5 24 -10 42 9 70
71 104 73 40 119 81 174 157 24 33 56 70 72 83 16 14 32 42 38 68 15 59 48 92
99 100 32 5 45 13 54 33 6 14 20 39 30 54 14 21 16 31 7 40 -17 17 -13 58 9
95 25 41 19 41 -25 -3 -29 -30 -41 -35 -73 -34 -38 3 -81 -19 -112 -56 -14
-17 -46 -20 -55 -5 -4 6 12 35 35 66 l41 54 -26 10 c-40 15 -43 14 -105 -48
-53 -53 -74 -67 -133 -86 -10 -3 -26 -25 -36 -49 -13 -31 -28 -48 -50 -57 -18
-7 -39 -26 -47 -41 -8 -16 -18 -29 -23 -29 -4 0 -28 -13 -52 -30 -83 -56 -123
-33 -61 34 23 24 50 62 61 84 11 22 38 54 60 71 43 34 101 122 120 182 17 52
1 91 -36 87 -24 -3 -29 -9 -38 -48 -6 -25 -16 -55 -23 -67 -9 -17 -9 -28 0
-48 19 -43 -24 -95 -79 -95 -25 0 -117 -46 -138 -70 -11 -12 -36 -30 -56 -41
-25 -12 -38 -27 -42 -46 -4 -18 -19 -38 -43 -53 -29 -20 -40 -37 -57 -88 -17
-55 -25 -66 -58 -83 -21 -10 -56 -19 -78 -19 -22 0 -42 -4 -46 -9 -3 -5 -21
-15 -41 -21 -30 -10 -42 -9 -87 10 -29 12 -58 27 -66 33 -7 6 -28 10 -47 8
-19 -1 -34 2 -34 8 0 6 -9 15 -21 21 -16 9 -30 7 -69 -14 -38 -20 -55 -24 -72
-17 -13 5 -36 12 -51 16 -27 6 -40 25 -51 76 -8 36 -30 42 -72 20 -33 -18 -40
-18 -82 -5 -42 12 -66 30 -74 55 -2 5 -28 15 -58 23 -53 14 -55 14 -79 -10
-29 -29 -60 -38 -106 -31 -50 8 -35 -18 29 -49 28 -14 72 -47 97 -72 66 -67
201 -164 292 -208 91 -45 99 -67 25 -72 -32 -2 -63 4 -94 17 -26 12 -60 21
-76 21 -16 0 -52 13 -80 29 l-51 29 -27 -20 c-24 -17 -32 -18 -66 -9 -21 6
-60 11 -86 11 -69 0 -114 25 -139 78 -15 30 -31 47 -51 54 -35 12 -48 35 -48
83 0 50 -25 105 -47 105 -30 0 -41 -19 -36 -61 l6 -39 -37 0 c-38 0 -41 3
-101 78 -34 43 -55 96 -55 141 0 15 -12 35 -30 50 -24 20 -35 43 -50 100 -17
66 -17 77 -4 103 8 15 18 28 22 28 4 0 48 -13 97 -29 190 -62 265 -82 292 -79
24 3 20 5 -22 16 -27 7 -86 23 -129 36 l-80 23 187 -5 c121 -3 187 -1 187 5 0
6 -70 12 -177 16 -98 3 -207 11 -243 17 -69 11 -277 60 -370 87 -104 29 -318
118 -308 128 1 2 31 13 66 24 l63 22 29 -24 c68 -58 237 -133 277 -125 10 2
-13 14 -52 27 -67 23 -225 108 -225 122 0 3 28 17 63 29 110 41 39 34 -96 -10
-218 -69 -277 -87 -392 -120 -60 -17 -141 -42 -180 -55 -248 -81 -334 -108
-445 -135 -69 -17 -165 -44 -215 -60 -49 -15 -164 -49 -255 -74 -91 -26 -241
-69 -335 -96 -93 -27 -233 -65 -310 -85 -171 -45 -294 -79 -400 -111 -44 -14
-88 -27 -97 -30 -13 -4 -18 0 -18 16 0 37 -38 97 -92 144 -29 25 -50 46 -46
46 3 0 49 11 101 25 53 14 146 36 209 50 307 64 712 161 836 199 94 29 247 70
322 87 30 6 125 32 210 57 85 24 182 51 215 59 33 9 132 36 220 60 253 72 448
121 613 155 83 17 152 36 152 41 0 6 -17 7 -41 3 l-41 -7 33 28 33 28 -85 26
-84 26 40 7 c22 3 74 16 115 28 41 11 95 25 120 30 25 6 79 18 121 29 41 10
85 19 97 19 34 0 26 25 -20 61 -24 18 -47 37 -53 42 -16 15 56 -23 100 -53 22
-15 87 -53 145 -84 58 -32 164 -97 235 -145 185 -124 218 -145 208 -127 -11
20 -267 196 -360 248 -40 22 -73 41 -73 43 0 2 21 -5 48 -15 200 -80 314 -121
319 -116 9 9 8 9 -101 53 -111 46 -111 45 47 59 42 3 77 11 77 16 0 9 -146 3
-177 -7 -17 -6 -17 58 -2 88 14 24 20 167 8 167 -4 0 -16 -13 -26 -30 -25 -43
-50 -39 -72 14 -16 36 -36 56 -57 56 -2 0 -4 -13 -4 -28 0 -29 -21 -53 -72
-85 -16 -10 -28 -23 -28 -30 -1 -16 -46 -67 -60 -67 -6 0 -32 11 -59 25 -47
23 -61 43 -61 90 0 25 92 124 142 154 42 25 102 96 94 110 -3 5 -26 14 -52 20
-59 15 -99 40 -85 54 8 8 5 17 -6 30 -17 18 -16 22 21 90 21 40 51 88 66 107
15 20 36 53 47 75 10 22 32 61 47 88 l28 47 -34 0 c-40 0 -65 22 -74 67 -5 23
-14 33 -39 41 l-34 10 -3 -42 -3 -41 -90 -45 -90 -45 -1 -40 c-1 -60 -2 -60
-35 -93 -46 -45 -93 -65 -137 -57 -70 11 -70 15 1 118 36 52 80 123 98 158 19
34 56 87 83 116 27 30 47 55 45 57 -2 3 -83 1 -179 -4 -169 -8 -292 -29 -351
-60 -11 -7 -22 -10 -23 -8 -1 2 -12 46 -25 99 -22 91 -23 135 -5 202 8 25 -15
21 -64 -11 -39 -27 -46 -28 -102 -20 -110 15 -512 25 -717 17 -223 -7 -238
-11 -269 -72 -9 -17 -17 -33 -18 -34 0 -1 -12 -4 -26 -8 -25 -6 -25 -5 -22 40
5 56 -17 95 -53 95 -14 0 -25 4 -25 10 0 18 -38 30 -64 21 -18 -7 -28 -6 -36
5 -15 17 -42 18 -58 2 -7 -7 -30 -11 -52 -10 -29 2 -44 -2 -56 -17 -17 -19
-17 -19 -45 1 -25 19 -37 20 -116 14 -48 -4 -146 -15 -218 -26 -82 -12 -133
-16 -139 -10 -22 22 -28 8 -7 -14 19 -20 28 -23 54 -16 61 16 368 52 392 46
16 -4 40 -30 68 -75 25 -37 54 -77 64 -87 26 -25 33 -57 22 -99 -7 -23 -16
-35 -31 -37 -12 -2 -37 -22 -55 -46 -18 -24 -33 -37 -33 -30 0 8 -10 24 -23
36 -34 33 -92 29 -505 -29 -199 -29 -364 -50 -367 -47 -5 5 78 235 101 280 8
16 26 30 42 34 15 3 30 6 35 7 4 1 -11 24 -33 51 -42 51 -47 65 -29 98 6 11 8
22 6 25 -3 2 -11 -5 -17 -17z m999 -67 c5 -10 12 -39 16 -65 4 -27 12 -48 17
-48 9 0 7 48 -4 101 -2 8 7 15 19 17 26 4 43 -28 43 -78 0 -16 5 -32 10 -35 6
-4 10 12 10 39 0 25 4 46 10 46 19 0 38 -45 33 -82 -4 -32 -9 -37 -41 -44 -21
-4 -30 -9 -22 -11 11 -2 15 -17 15 -52 0 -43 -3 -50 -25 -59 -24 -9 -23 -10
13 -11 41 -1 45 -9 19 -41 -27 -34 -272 -67 -272 -37 0 18 30 44 55 49 49 9
51 147 3 200 -18 21 -19 21 -14 3 4 -15 -1 -12 -19 10 -27 32 -32 74 -13 93
25 25 46 12 81 -55 38 -71 53 -60 17 12 -15 29 -17 42 -9 52 16 18 47 16 58
-4z m1360 -99 c-10 -60 -8 -249 4 -260 2 -2 30 8 63 22 98 43 200 64 359 74
82 5 151 8 152 6 1 -1 -15 -23 -37 -49 -21 -26 -55 -78 -76 -115 -21 -37 -67
-109 -102 -160 -35 -51 -62 -96 -59 -99 4 -3 39 -16 79 -30 67 -22 302 -134
321 -153 9 -8 -74 -68 -241 -172 -59 -37 -115 -73 -126 -80 -17 -13 -11 -18
70 -68 78 -47 258 -180 251 -186 -6 -5 -169 -44 -185 -44 -11 0 -54 -11 -95
-25 -42 -13 -107 -29 -144 -35 -93 -14 -113 -19 -113 -29 0 -4 41 -21 92 -37
l91 -30 -49 -31 c-28 -18 -70 -34 -99 -39 -27 -3 -61 -11 -74 -16 -17 -6 -49
-3 -102 8 l-77 18 15 23 c12 18 14 38 10 82 -6 54 -4 62 23 99 16 22 41 64 56
93 15 30 39 72 54 94 45 66 102 186 116 245 7 30 13 90 14 133 0 64 -6 92 -32
160 -26 69 -41 91 -92 140 -34 32 -90 73 -126 90 -61 30 -71 32 -175 32 -119
0 -158 -11 -240 -66 -22 -15 -59 -30 -81 -33 l-41 -6 -7 53 c-9 85 21 175 106
315 l21 34 17 -49 c39 -109 75 -193 82 -193 4 0 23 31 42 69 41 80 125 162
226 218 36 20 76 45 89 55 13 10 26 16 28 14 2 -2 -1 -34 -8 -72z m-139 39
l34 -9 -38 -22 c-21 -12 -59 -40 -85 -62 -47 -39 -48 -40 -129 -40 l-81 0 -12
40 c-7 22 -16 40 -20 40 -4 0 -23 -22 -42 -49 -39 -54 -31 -51 -247 -67 -47
-3 -139 -14 -204 -25 -85 -14 -123 -16 -130 -9 -6 6 -11 42 -11 80 0 62 3 72
29 99 26 27 37 31 100 34 121 7 799 -1 836 -10z m-1464 -288 c64 -64 -29 -94
-451 -145 -313 -37 -275 -39 -344 10 -33 23 -58 47 -55 51 3 5 20 9 37 9 18 1
181 23 362 50 395 58 417 59 451 25z m964 -246 c0 -16 4 -30 10 -34 21 -13 -4
-33 -48 -38 -26 -2 -54 -8 -63 -11 -13 -6 -19 1 -28 25 -16 47 -25 132 -17
173 l7 36 69 -62 c54 -48 70 -68 70 -89z m550 119 c54 -24 159 -107 187 -149
67 -101 89 -235 59 -359 -18 -76 -99 -231 -218 -417 -29 -45 -36 -51 -58 -46
l-25 6 28 -32 c59 -70 16 -169 -80 -186 -36 -6 -46 -13 -70 -51 -24 -38 -36
-47 -83 -60 -30 -9 -91 -26 -135 -39 -44 -13 -96 -26 -115 -30 -19 -4 -65 -16
-101 -27 l-67 -21 -44 26 c-67 39 -113 96 -128 156 -7 29 -10 55 -7 58 4 3 23
-8 45 -25 34 -28 92 -52 92 -39 0 3 -20 17 -44 31 -54 31 -130 115 -161 176
-44 86 -56 205 -29 283 30 90 115 124 192 77 37 -23 43 -10 8 17 -24 17 -24
20 -11 51 14 32 16 33 37 18 12 -9 32 -16 43 -15 15 0 13 4 -11 14 -34 15 -47
36 -38 60 5 13 10 12 33 -4 14 -10 45 -24 67 -31 l42 -13 -33 -43 c-77 -100
-67 -186 18 -150 43 17 97 64 97 83 0 9 -14 2 -42 -22 -23 -19 -53 -38 -66
-42 -95 -24 5 150 133 233 29 18 51 40 52 50 1 11 6 37 12 59 18 71 -19 159
-81 191 -28 14 -29 17 -14 32 24 24 175 29 271 7 108 -24 160 -68 246 -210 68
-113 91 -132 126 -104 24 21 13 112 -24 192 -46 97 -115 165 -214 212 -72 34
-89 38 -164 39 -71 1 -82 3 -70 15 7 7 37 22 67 33 64 22 221 20 278 -4z
m-228 -67 c132 -22 251 -112 312 -237 37 -74 47 -160 20 -171 -11 -4 -21 -1
-26 8 -5 8 -36 58 -70 112 -109 177 -198 222 -423 215 -96 -3 -110 -1 -113 14
-4 23 26 37 111 53 91 16 118 17 189 6z m-292 -163 c113 -58 112 -202 -2 -284
-44 -31 -55 -35 -86 -29 -81 15 -127 59 -137 130 -9 60 2 100 38 141 56 65
116 78 187 42z m1156 -348 c-15 -22 -31 -40 -36 -40 -6 0 -10 -14 -10 -31 0
-36 -16 -69 -33 -69 -7 0 -36 16 -65 34 l-53 34 108 64 c60 36 110 61 111 56
2 -5 -8 -27 -22 -48z m-3428 -822 c48 -104 51 -125 42 -284 -12 -191 -12 -180
0 -168 10 10 23 169 32 391 4 78 11 95 32 72 41 -43 58 -246 31 -369 -17 -77
-19 -108 -6 -94 5 5 21 59 34 119 14 61 30 124 37 140 11 29 12 29 26 11 32
-45 -1 -229 -71 -388 -36 -80 -41 -113 -11 -64 9 14 23 37 31 51 31 51 110 19
103 -42 -3 -27 -9 -30 -138 -70 -74 -23 -146 -42 -159 -43 -38 0 -110 41 -151
87 -56 63 -102 165 -104 227 -1 39 2 51 14 51 15 0 34 -33 89 -157 23 -53 35
-68 51 -68 23 0 40 34 40 79 0 46 -57 198 -111 300 -78 144 -81 150 -74 161
11 17 24 11 70 -31 88 -82 154 -223 155 -332 0 -36 4 -56 10 -52 19 12 11 187
-16 347 -15 86 -24 164 -20 173 9 25 40 2 64 -47z m5880 -562 c4 -32 -58 -131
-87 -141 -10 -3 -32 -23 -50 -45 -18 -22 -39 -40 -48 -40 -9 0 -26 -9 -37 -19
-19 -17 -49 -25 -83 -22 -20 2 -15 49 9 95 36 67 57 86 97 86 27 0 44 8 66 30
92 93 127 108 133 56z m-1378 -568 c25 -12 63 -24 85 -28 22 -4 89 -22 150
-40 85 -25 120 -31 156 -26 33 5 65 0 110 -14 39 -12 92 -20 136 -20 53 0 76
-4 88 -16 14 -14 14 -19 3 -30 -29 -29 -219 -46 -257 -23 -14 9 -26 9 -52 0
-29 -10 -37 -9 -59 7 -17 13 -33 16 -50 11 -54 -15 -89 -10 -122 20 -19 16
-52 32 -73 36 -22 4 -53 18 -70 30 -16 12 -43 29 -60 38 -41 21 -75 54 -75 73
0 18 18 14 90 -18z"/>
<path d="M2831 4609 c-57 -23 -101 -70 -117 -126 -19 -65 -13 -113 22 -166 53
-81 194 -113 279 -63 48 29 95 106 95 159 0 76 -48 160 -112 193 -30 16 -130
18 -167 3z m177 -36 c109 -71 103 -252 -11 -306 -68 -33 -183 -12 -229 39 -52
59 -59 151 -15 216 54 79 174 103 255 51z"/>
<path d="M2203 4296 c-33 -30 -37 -39 -41 -93 -11 -158 107 -331 278 -405 72
-31 187 -44 255 -29 81 18 147 84 165 163 11 47 10 59 -4 87 -31 58 -66 71
-193 70 -149 -1 -167 8 -238 117 -84 129 -150 156 -222 90z"/>
<path d="M5030 5565 c-14 -8 -37 -14 -51 -15 -15 0 -37 -12 -54 -30 -25 -26
-36 -30 -82 -30 -45 0 -55 -3 -69 -26 -19 -28 -53 -48 -100 -58 -25 -6 -53 2
-127 33 -133 57 -148 59 -185 25 -17 -16 -62 -45 -101 -64 -39 -19 -71 -38
-71 -42 0 -4 4 -18 10 -32 9 -26 11 -26 78 -20 62 6 72 4 91 -15 13 -13 21
-34 21 -56 0 -27 4 -35 18 -34 35 1 54 16 80 64 18 32 41 58 67 73 35 20 49
22 115 17 56 -5 84 -2 112 9 59 25 114 20 170 -14 56 -35 63 -35 113 -14 40
16 86 12 105 -11 6 -7 33 -19 61 -25 44 -11 52 -10 69 5 10 9 28 15 41 13 18
-2 24 3 31 28 10 39 29 47 77 35 20 -6 48 -13 63 -16 16 -3 35 -18 47 -39 12
-18 38 -45 59 -60 39 -27 82 -90 82 -120 0 -27 -25 -29 -69 -7 -48 25 -60 26
-67 6 -4 -9 7 -30 25 -50 51 -59 53 -116 3 -123 -11 -2 -46 8 -77 22 -69 32
-71 32 -79 1 -6 -22 -11 -25 -55 -25 -54 0 -74 -15 -69 -52 4 -29 51 -47 78
-30 26 16 71 15 94 -3 27 -21 39 -19 83 11 41 28 79 27 136 -2 26 -14 30 -13
58 11 20 16 43 25 64 25 42 0 50 12 25 35 -33 30 -82 114 -76 130 3 8 15 15
26 15 26 0 25 6 -5 42 -14 16 -25 42 -25 57 0 21 -12 38 -51 70 -54 47 -64 83
-22 89 18 3 120 -41 261 -111 29 -14 36 -27 52 -95 10 -45 18 -57 51 -77 43
-28 55 -46 84 -125 17 -47 24 -55 48 -58 32 -4 33 2 7 68 -36 91 -17 120 36
58 17 -21 25 -25 20 -13 -19 49 -18 80 3 99 26 24 26 37 0 87 -19 39 -22 41
-56 34 -46 -8 -70 8 -127 88 -36 50 -54 66 -84 75 -22 7 -45 18 -51 26 -8 10
-24 12 -52 9 -33 -5 -44 -1 -65 18 l-26 24 -20 -28 c-27 -38 -72 -36 -189 9
-103 39 -191 56 -284 55 -47 -1 -68 4 -94 21 -65 43 -76 48 -116 47 -22 0 -51
-6 -65 -14z"/>
<path d="M1406 5439 c-33 -5 -63 -12 -68 -17 -13 -13 -87 -185 -83 -192 4 -6
56 -1 152 15 29 5 34 12 61 83 47 122 47 122 20 121 -13 -1 -50 -5 -82 -10z"/>
<path d="M1183 5418 c14 -54 -71 -153 -125 -145 -36 5 -37 -15 -3 -48 29 -30
44 -31 94 -6 45 23 90 85 98 134 4 29 1 40 -20 61 -32 32 -51 34 -44 4z"/>
<path d="M1593 5370 c-68 -28 -50 -126 27 -145 94 -23 133 98 45 139 -37 18
-41 18 -72 6z"/>
<path d="M4660 5160 c-28 -9 -63 -29 -78 -42 -37 -35 -65 -48 -101 -48 -24 0
-34 -7 -52 -40 -13 -22 -37 -49 -54 -60 -27 -18 -28 -20 -8 -20 13 0 40 -16
62 -35 43 -39 53 -42 72 -19 7 8 30 25 52 36 35 17 45 18 82 8 24 -7 59 -25
78 -41 38 -31 77 -101 77 -138 0 -13 4 -19 10 -16 16 10 106 -5 127 -20 17
-13 17 -14 0 -32 -14 -14 -34 -18 -85 -18 -44 -1 -81 -7 -106 -19 -21 -10 -75
-27 -120 -38 -46 -11 -94 -29 -107 -40 l-24 -19 30 -22 c16 -12 44 -36 61 -52
25 -24 36 -29 52 -22 19 9 19 11 5 44 -30 73 29 129 111 104 46 -15 60 -15
132 -6 46 7 53 5 67 -16 9 -12 33 -28 54 -35 38 -13 38 -13 73 27 32 36 39 40
80 39 25 -1 68 -1 97 0 36 0 62 -6 85 -20 18 -11 46 -20 61 -20 20 0 41 -13
74 -45 25 -25 49 -45 53 -45 4 0 10 13 13 30 6 29 27 55 63 76 30 19 6 48 -42
52 -21 2 -48 11 -59 21 -11 10 -32 21 -47 25 -14 3 -39 17 -55 30 -16 13 -40
26 -53 28 -19 2 -25 9 -25 28 0 36 -27 43 -109 29 -65 -11 -74 -10 -110 8 -37
19 -44 19 -100 6 -34 -8 -74 -13 -90 -11 -71 7 -54 78 31 135 53 35 56 36 122
29 51 -4 72 -2 87 8 24 18 15 27 -53 50 -42 14 -58 15 -93 6 -24 -6 -64 -8
-95 -5 -45 6 -60 4 -87 -13 -18 -11 -55 -26 -81 -33 -41 -10 -51 -9 -64 4 -22
22 -8 54 38 82 36 24 58 63 45 83 -11 19 -45 19 -96 2z"/>
<path d="M4162 4907 c-75 -87 -80 -97 -58 -97 54 0 73 -16 81 -65 l7 -47 36 6
c61 9 77 51 47 123 -21 50 -19 69 10 92 l26 20 -28 3 c-22 2 -29 9 -33 32 -5
29 -7 28 -88 -67z"/>
<path d="M5682 4502 c-6 -21 -23 -49 -37 -62 -37 -35 -109 -33 -164 3 -29 19
-54 27 -85 27 -27 0 -58 8 -79 20 -30 18 -36 18 -53 5 -10 -8 -37 -15 -60 -15
-22 0 -43 -3 -47 -6 -7 -8 36 -50 47 -46 17 6 150 -20 177 -34 46 -23 45 -58
-3 -111 -28 -30 -16 -55 37 -76 73 -31 95 -53 95 -98 0 -21 -5 -39 -10 -39 -6
0 -31 -20 -55 -44 l-45 -43 35 -34 c19 -19 39 -46 46 -60 19 -48 98 -44 121 6
7 17 24 29 50 36 30 7 43 18 55 45 16 33 16 35 -10 62 -52 54 -53 171 -2 238
33 43 60 57 96 52 16 -3 29 -3 29 -2 0 2 -11 15 -25 30 -14 15 -28 44 -31 64
-7 41 -43 111 -60 117 -6 2 -16 -14 -22 -35z"/>
<path d="M5657 3761 c-9 -16 -17 -39 -17 -50 0 -39 -28 -89 -59 -105 -17 -9
-55 -16 -90 -16 -51 0 -61 -3 -66 -20 -10 -30 -55 -81 -83 -91 -16 -6 -37 -5
-63 3 -36 10 -42 9 -67 -11 -46 -37 -93 -53 -138 -48 -41 4 -41 4 -31 -22 15
-40 -15 -97 -64 -121 -41 -22 -118 -26 -150 -10 -23 13 -24 5 -7 -50 14 -44
22 -47 75 -25 19 8 46 15 58 15 12 0 28 -7 35 -15 8 -10 30 -15 62 -15 42 0
54 -5 79 -30 46 -45 81 -67 119 -73 19 -3 49 -9 67 -13 24 -4 41 0 68 16 30
19 44 21 90 15 48 -6 58 -3 87 18 18 13 48 30 67 37 22 9 38 25 47 45 13 33
70 65 114 65 11 0 39 17 63 39 23 21 58 46 77 56 74 37 123 85 86 85 -8 0 -24
9 -37 19 -23 19 -24 19 -54 -6 -16 -14 -37 -40 -45 -57 -29 -61 -133 -85 -197
-46 -43 26 -67 73 -53 101 30 55 135 77 207 42 34 -16 35 -16 61 10 32 32 22
47 -17 24 -16 -9 -38 -17 -48 -17 -21 0 -63 39 -63 57 0 17 -80 -31 -119 -71
-19 -20 -40 -36 -46 -36 -6 0 -24 -13 -40 -30 -31 -32 -107 -66 -124 -55 -25
15 -7 47 59 106 39 35 70 68 70 74 0 6 18 28 40 50 22 21 45 55 51 74 6 20 20
50 30 67 23 39 24 44 1 44 -10 0 -25 -13 -35 -29z m-480 -433 c45 -19 263 -29
326 -14 33 7 37 6 37 -12 0 -14 -16 -27 -62 -47 -55 -25 -65 -26 -95 -16 -26
10 -41 10 -69 1 -37 -13 -94 -9 -165 10 -70 19 -85 59 -31 79 15 5 28 10 29
10 1 1 14 -4 30 -11z"/>
<path d="M6478 2873 c-8 -10 -21 -29 -28 -43 -7 -14 -25 -41 -40 -60 -20 -25
-29 -52 -34 -94 -5 -46 -14 -70 -42 -108 -37 -50 -74 -149 -74 -197 0 -41 -35
-136 -65 -175 -34 -45 -52 -113 -60 -226 -7 -115 -13 -146 -25 -134 -11 11
-30 160 -30 235 0 38 -5 61 -15 69 -8 7 -15 29 -15 49 0 21 -7 46 -15 57 -9
12 -14 42 -15 80 0 46 -5 66 -20 84 -27 31 -26 77 4 180 25 85 23 120 -8 120
-29 0 -88 -88 -99 -148 -4 -19 -16 -46 -26 -61 -11 -15 -23 -40 -27 -55 -6
-27 -7 -27 -21 -6 -8 11 -18 18 -23 15 -4 -3 -10 2 -14 10 -3 8 -10 15 -15 15
-28 0 -55 -85 -133 -422 -8 -37 -7 -64 5 -125 9 -45 13 -99 10 -127 -4 -34 -3
-47 5 -42 18 11 25 110 12 183 -13 74 -13 74 33 253 14 52 31 122 37 154 9 42
15 55 21 45 7 -11 13 -9 29 11 l20 25 0 -23 c0 -18 5 -23 22 -20 17 2 27 14
36 42 6 21 21 49 32 63 11 14 22 41 26 60 8 41 51 123 66 123 5 0 7 -8 4 -18
-24 -75 -38 -135 -43 -182 -4 -47 -2 -58 16 -74 17 -15 21 -31 21 -80 1 -34 7
-72 15 -86 8 -14 14 -44 15 -66 0 -26 5 -44 13 -47 10 -4 16 -37 20 -114 4
-59 12 -126 18 -148 6 -22 13 -57 16 -77 4 -27 10 -38 22 -38 29 0 42 47 52
185 11 144 24 194 66 257 29 43 48 100 77 238 12 55 26 87 51 119 36 44 55 95
55 143 0 30 93 179 98 156 1 -8 -14 -57 -34 -109 -48 -125 -55 -213 -25 -320
12 -43 24 -115 28 -160 3 -46 12 -96 19 -110 7 -14 16 -61 20 -105 4 -48 14
-91 25 -110 15 -25 17 -37 8 -68 -7 -26 -7 -47 0 -69 9 -25 7 -45 -5 -87 -8
-30 -18 -65 -21 -77 -3 -13 4 -41 16 -66 13 -26 21 -63 21 -94 0 -36 6 -58 21
-77 19 -24 21 -36 16 -89 -5 -56 -3 -67 24 -114 32 -58 37 -94 14 -113 -13
-11 -15 -7 -15 26 0 33 -5 42 -35 62 -30 19 -35 28 -35 61 0 38 -19 71 -42 71
-7 0 -8 25 -3 75 6 70 5 76 -20 109 -35 45 -55 115 -55 186 0 32 -7 74 -15 93
-20 48 -19 83 5 169 27 97 25 115 -10 148 -26 25 -30 35 -30 84 0 42 -4 58
-16 63 -8 3 -20 1 -25 -4 -19 -19 -38 -132 -36 -211 2 -77 1 -81 -34 -133 -33
-48 -37 -62 -42 -134 -3 -50 -11 -93 -23 -115 -11 -21 -20 -63 -22 -107 -2
-40 -7 -73 -11 -73 -12 0 -31 49 -38 95 -4 36 -11 45 -38 58 -31 15 -34 20
-38 74 -6 71 -24 152 -37 168 -5 6 -17 43 -25 81 -23 99 -24 102 -45 109 -10
3 -22 16 -26 28 -3 12 -15 30 -25 40 -15 14 -19 32 -19 78 0 148 -65 123 -101
-39 -10 -41 -9 -63 1 -106 9 -40 10 -72 3 -122 -6 -38 -7 -91 -4 -119 6 -48 7
-45 25 69 16 102 17 125 6 172 -14 57 -5 123 25 189 13 29 13 28 14 -38 1 -72
8 -88 73 -158 17 -19 31 -50 38 -87 6 -31 20 -75 30 -97 20 -44 28 -81 37
-170 6 -65 15 -82 50 -96 13 -5 25 -20 28 -36 17 -80 27 -104 50 -115 40 -18
55 3 55 77 0 42 7 80 20 111 12 28 23 82 27 128 5 69 10 86 35 118 39 50 48
88 42 172 -3 39 -1 85 5 101 l9 30 1 -31 c1 -20 11 -40 32 -60 27 -26 30 -34
25 -70 -3 -23 -12 -61 -21 -85 -19 -56 -19 -93 0 -155 8 -27 15 -74 15 -105 0
-65 19 -127 57 -183 22 -35 25 -46 20 -96 -8 -68 -1 -97 24 -105 14 -5 19 -16
19 -43 0 -43 4 -49 45 -81 24 -18 31 -32 35 -69 4 -40 8 -47 27 -47 11 0 24
-3 28 -7 4 -4 13 -4 21 -1 22 8 6 108 -28 175 -26 52 -28 61 -18 97 8 32 7 48
-4 74 -8 19 -19 38 -25 41 -6 4 -11 32 -11 61 0 36 -7 68 -22 96 -21 40 -21
42 -3 97 9 31 16 74 15 97 -2 22 -2 68 -1 102 1 40 -4 71 -13 85 -8 13 -17 57
-21 98 -4 41 -13 91 -20 110 -7 19 -16 67 -19 107 -2 40 -15 107 -27 150 -30
109 -23 201 26 319 40 97 43 147 9 152 -11 2 -27 -5 -36 -15z"/>
<path d="M1808 2611 c-14 -12 -33 -18 -45 -15 -14 4 -22 -2 -31 -21 -19 -40
-15 -61 18 -92 32 -30 36 -54 19 -116 -14 -53 -4 -90 42 -143 40 -46 47 -73
29 -119 -7 -18 -7 -33 1 -47 6 -12 12 -50 14 -84 1 -50 8 -72 28 -101 16 -23
24 -46 21 -58 -3 -11 4 -47 16 -79 22 -65 26 -132 9 -168 -8 -20 -5 -34 20
-82 29 -54 30 -59 16 -86 -22 -43 -18 -79 15 -145 16 -33 30 -65 30 -71 0 -6
7 -17 16 -24 11 -10 14 -28 12 -72 -2 -50 0 -60 20 -73 17 -12 22 -26 22 -58
0 -48 22 -87 49 -87 24 0 33 24 25 67 -5 28 -2 39 18 61 35 38 40 60 22 92
-13 21 -15 38 -9 76 11 62 10 66 -27 125 l-30 50 17 45 c11 29 15 57 11 77 -4
18 -9 55 -11 82 -2 28 -7 67 -10 88 -9 47 5 48 53 6 29 -26 41 -30 69 -26 32
6 36 3 69 -49 37 -57 43 -61 74 -42 15 10 22 9 38 -5 10 -9 28 -17 39 -17 15
0 28 -15 49 -57 30 -59 43 -66 93 -52 10 3 25 -15 43 -48 21 -38 38 -55 63
-64 24 -9 41 -26 60 -60 17 -31 40 -56 69 -73 38 -22 45 -32 56 -77 8 -32 25
-66 45 -88 18 -20 40 -51 49 -68 10 -21 24 -33 36 -33 18 0 20 7 20 65 0 68
-12 103 -56 161 -13 17 -24 41 -24 54 0 32 -36 87 -63 94 -12 3 -32 24 -45 46
-13 23 -34 46 -48 52 -16 8 -28 25 -35 52 -6 24 -27 56 -50 79 -21 22 -39 42
-39 45 0 3 -12 24 -27 48 -29 45 -58 64 -98 64 -14 0 -25 4 -25 8 0 5 -10 18
-21 31 -15 16 -24 20 -32 12 -7 -7 -19 4 -39 39 -19 34 -35 50 -48 50 -11 0
-20 2 -20 5 0 16 85 87 111 92 38 7 76 53 90 109 6 24 17 49 25 55 8 6 14 25
14 42 0 17 11 47 24 66 20 30 25 52 29 139 5 97 4 104 -19 131 -20 24 -23 35
-18 77 5 41 2 54 -17 78 -20 26 -26 28 -70 22 -34 -5 -48 -3 -52 6 -2 7 -8 10
-12 6 -4 -4 -5 -15 -1 -24 5 -14 15 -16 53 -10 64 8 73 -2 73 -83 0 -53 4 -70
19 -83 17 -15 19 -26 14 -120 -4 -80 -10 -107 -24 -123 -10 -11 -20 -40 -23
-64 -3 -25 -12 -49 -21 -53 -8 -5 -15 -18 -15 -28 0 -60 -48 -120 -96 -120 -8
0 -39 -25 -70 -56 -54 -54 -55 -56 -38 -75 9 -10 24 -18 33 -17 10 2 25 -15
41 -46 26 -51 47 -67 60 -47 4 8 12 1 20 -19 10 -25 18 -31 39 -29 47 5 71
-11 97 -63 14 -27 41 -63 59 -80 21 -17 39 -46 45 -68 12 -43 33 -70 56 -70 8
0 17 -8 21 -17 10 -30 53 -83 67 -83 22 0 46 -35 46 -66 0 -27 9 -44 54 -108
23 -33 35 -86 25 -111 -6 -16 -8 -17 -8 -3 -1 9 -15 28 -32 42 -22 19 -37 45
-51 91 -17 57 -24 68 -59 87 -26 15 -50 41 -70 75 -22 38 -39 55 -64 63 -26 8
-41 24 -65 67 -31 54 -32 55 -68 49 -37 -5 -38 -5 -66 49 -20 40 -34 55 -49
55 -11 0 -31 10 -44 22 -21 19 -28 21 -54 11 -27 -11 -30 -9 -45 18 -26 51
-51 69 -93 69 -23 0 -44 6 -51 15 -7 9 -25 25 -40 35 -27 19 -27 19 -49 -1
-25 -23 -27 -58 -6 -99 12 -22 13 -34 4 -53 -9 -19 -7 -31 5 -55 15 -29 15
-34 -4 -81 -22 -56 -19 -71 25 -140 23 -38 24 -44 13 -86 -10 -38 -10 -50 5
-80 18 -38 14 -59 -17 -85 -11 -8 -16 -29 -16 -62 0 -30 -4 -47 -10 -43 -5 3
-10 26 -10 51 0 32 -6 50 -22 66 -18 18 -23 35 -24 82 -1 34 -6 62 -13 64 -6
2 -11 9 -11 15 0 6 -14 39 -31 74 -31 65 -32 70 -13 160 4 24 0 44 -21 81 -22
40 -25 54 -16 70 15 29 14 78 -6 142 -8 30 -17 75 -18 99 -2 27 -12 56 -26 75
-15 20 -24 47 -26 76 -1 25 -5 59 -8 75 -9 42 -9 55 -1 100 6 34 4 45 -18 75
-65 89 -67 93 -61 135 4 22 9 55 12 73 4 27 -1 39 -32 73 -22 24 -34 47 -31
56 3 8 6 18 6 23 0 4 9 6 20 3 13 -3 32 5 55 26 39 34 24 44 -17 12z"/>
<path d="M2101 2469 c-35 -26 -48 -30 -79 -26 -26 5 -41 2 -54 -10 -22 -20
-24 -66 -3 -83 10 -8 15 -31 15 -69 0 -45 4 -59 20 -69 16 -9 20 -23 20 -61 0
-35 5 -53 20 -66 13 -12 20 -31 20 -56 0 -21 7 -45 16 -53 13 -14 13 -21 3
-51 -11 -30 -11 -37 3 -52 16 -15 19 -15 43 1 24 16 27 16 54 0 28 -17 31 -16
56 2 65 45 81 54 107 54 31 0 68 41 68 76 0 33 14 65 42 95 34 36 43 85 22
117 -11 17 -13 27 -5 35 19 19 12 42 -23 76 -23 22 -32 39 -29 54 3 15 -4 30
-20 45 -21 20 -29 22 -46 13 -21 -12 -28 -7 -68 42 -8 10 -33 15 -76 16 -56 1
-68 -3 -106 -30z m168 -12 c11 -30 45 -49 76 -44 35 6 45 -4 45 -46 0 -12 15
-36 32 -54 29 -30 31 -36 20 -54 -11 -17 -11 -25 3 -45 19 -29 14 -53 -25
-109 -16 -22 -31 -58 -35 -80 -8 -48 -21 -65 -47 -65 -24 0 -76 -26 -105 -53
-21 -18 -26 -19 -49 -7 -20 11 -32 12 -56 2 -29 -10 -30 -10 -23 11 17 55 17
67 1 73 -11 4 -16 18 -16 44 0 23 -8 48 -22 65 -15 20 -21 39 -19 65 2 28 -4
42 -25 63 -23 24 -26 32 -21 71 5 32 2 47 -8 56 -8 7 -15 25 -15 41 0 28 2 29
49 29 39 0 56 6 87 30 35 29 42 30 93 24 31 -4 58 -11 60 -17z"/>
<path d="M8157 2434 c-3 -3 -3 -37 0 -75 4 -48 2 -77 -7 -94 -8 -16 -10 -39
-6 -67 4 -24 10 -75 14 -115 4 -39 11 -75 15 -79 11 -12 8 110 -5 165 -9 40
-9 56 1 75 9 16 12 49 9 95 -2 39 -2 71 0 71 7 0 72 -149 72 -165 0 -29 52
-139 76 -162 21 -20 24 -31 24 -101 0 -53 5 -84 15 -98 8 -10 15 -25 15 -32 0
-7 10 -26 21 -42 21 -28 22 -50 4 -107 -11 -34 16 -29 54 9 18 18 49 38 69 43
24 7 38 18 41 30 2 15 0 17 -10 9 -8 -6 -27 -14 -44 -18 -16 -4 -41 -17 -54
-29 l-24 -22 6 26 c5 19 0 37 -18 63 -14 20 -25 43 -25 49 0 7 -5 18 -11 24
-12 12 -13 25 -17 131 -2 41 -7 58 -27 77 -28 29 -56 89 -91 195 -34 103 -76
165 -97 144z"/>
<path d="M3693 2415 c-12 -8 -28 -13 -36 -10 -29 12 -40 -22 -34 -103 7 -90
-8 -163 -75 -369 -11 -34 -17 -71 -13 -82 9 -30 49 -27 74 7 l21 27 -6 -55
c-3 -30 -12 -74 -21 -98 -12 -35 -13 -46 -2 -58 10 -12 10 -31 0 -97 -7 -45
-19 -99 -27 -120 -20 -55 -18 -103 7 -128 20 -20 22 -20 37 -5 22 22 50 102
72 211 11 50 20 91 20 93 0 1 5 2 12 2 6 0 20 7 29 16 17 16 19 15 28 -10 6
-14 14 -26 19 -26 14 0 62 -96 62 -124 0 -16 14 -41 36 -65 19 -22 40 -55 45
-74 5 -19 20 -51 34 -71 14 -20 25 -44 25 -52 0 -9 6 -30 14 -47 8 -18 16 -41
18 -52 5 -30 35 -30 68 2 34 32 38 62 14 118 -19 47 -54 182 -54 214 0 13 -10
40 -22 60 -13 20 -30 56 -38 81 -13 39 -20 47 -55 58 -30 10 -50 27 -82 71
-24 32 -43 62 -43 67 0 4 -7 15 -16 25 -25 28 -11 46 58 77 67 30 91 56 103
111 5 23 17 38 38 50 18 9 49 34 71 56 21 22 57 59 79 81 69 72 29 94 -68 39
-22 -13 -49 -32 -60 -42 -54 -49 -115 -93 -129 -93 -8 0 -31 -14 -50 -30 -35
-31 -92 -57 -103 -46 -3 3 0 31 7 61 10 42 11 61 2 78 -14 26 -16 90 -7 172 6
52 5 62 -12 77 -17 16 -21 16 -40 3z m29 -66 c-1 -24 -2 -75 -1 -114 2 -65 2
-92 -1 -202 -1 -23 1 -47 5 -52 7 -12 84 27 129 64 16 14 38 25 49 25 10 0 53
30 95 66 72 61 149 111 158 101 2 -2 -14 -18 -37 -36 -22 -18 -44 -43 -49 -56
-5 -13 -31 -35 -59 -50 -42 -23 -53 -36 -67 -74 -24 -64 -31 -71 -102 -103
-82 -37 -94 -60 -58 -119 52 -86 110 -152 145 -164 27 -9 37 -19 46 -51 7 -21
24 -59 39 -84 14 -25 26 -60 26 -77 0 -18 14 -75 30 -126 17 -52 29 -103 29
-113 -1 -17 -2 -17 -6 -1 -8 30 -32 19 -35 -15 -3 -33 -3 -33 -16 12 -12 39
-38 100 -90 205 -8 17 -25 41 -38 55 -12 14 -28 45 -34 70 -17 66 -88 170
-116 170 -12 0 -24 -6 -27 -14 -4 -9 -14 -12 -25 -9 -23 6 -25 1 -47 -112 -20
-105 -50 -190 -67 -190 -15 0 -13 67 3 97 18 33 40 210 28 224 -7 9 -6 28 5
66 8 29 16 78 18 108 3 46 0 55 -15 58 -11 2 -30 -10 -48 -30 l-31 -33 5 30
c3 17 9 44 15 60 29 82 57 231 62 334 5 110 6 114 27 116 13 1 26 5 30 9 16
16 28 -4 25 -45z"/>
<path d="M7764 2266 c-41 -91 -57 -160 -80 -353 -6 -47 -9 -53 -29 -53 -13 0
-36 -7 -52 -14 -15 -8 -36 -17 -45 -20 -29 -9 -22 -45 10 -51 15 -4 48 -16 74
-27 45 -20 86 -19 73 2 -4 6 -12 9 -18 7 -7 -2 -30 4 -52 14 -22 10 -50 19
-62 19 -13 0 -23 3 -23 8 0 9 71 32 99 32 25 0 44 24 43 58 -1 15 3 45 8 67 4
22 16 78 25 125 9 47 27 110 40 140 13 30 26 63 29 73 6 18 33 34 43 24 3 -4
-6 -28 -19 -54 -40 -76 -42 -89 -17 -112 17 -15 20 -26 15 -48 -4 -15 -11 -55
-17 -88 -5 -33 -14 -73 -19 -89 -5 -15 -7 -33 -3 -38 10 -17 31 33 39 92 4 30
13 70 21 89 16 38 11 71 -14 97 -16 15 -15 20 11 68 36 67 33 100 -12 104 -32
3 -34 1 -68 -72z"/>
<path d="M7166 2204 c-3 -9 -6 -40 -6 -71 0 -30 -5 -109 -11 -176 l-11 -121
27 -22 c23 -18 27 -27 20 -50 -8 -32 -8 -35 -1 -209 3 -65 8 -125 10 -132 8
-20 54 -16 66 6 5 11 10 38 10 61 0 23 4 49 10 59 5 10 10 35 12 55 1 20 5 36
9 36 6 0 59 -58 111 -123 16 -19 30 -53 34 -78 9 -64 41 -160 61 -181 19 -21
44 -23 61 -6 17 17 15 43 -7 86 -10 21 -21 71 -25 116 -5 63 -12 89 -35 126
-18 30 -28 56 -24 69 7 25 -29 84 -68 112 -16 11 -27 24 -25 28 3 4 39 24 81
45 87 44 117 80 108 130 -3 17 -13 40 -22 51 -38 45 -49 69 -37 87 8 14 5 22
-14 43 -18 19 -33 25 -67 25 -25 0 -53 5 -64 10 -27 15 -51 0 -91 -56 l-33
-46 -10 59 c-6 32 -14 64 -18 71 -11 17 -44 15 -51 -4z m45 -97 c14 -97 29
-99 84 -14 30 47 45 61 60 59 11 -2 43 -7 70 -10 48 -7 50 -8 50 -39 0 -21 10
-46 28 -68 60 -75 52 -127 -21 -160 -134 -60 -146 -82 -78 -151 37 -37 46 -52
46 -81 0 -19 9 -47 20 -62 23 -33 39 -99 40 -159 0 -23 9 -60 20 -82 23 -45
26 -74 8 -68 -14 5 -53 119 -63 180 -6 37 -34 80 -112 167 -37 41 -43 55 -43
92 0 57 -13 78 -37 63 -15 -9 -19 -31 -25 -115 -11 -158 -19 -219 -29 -219 -5
0 -10 24 -11 53 -1 28 -3 79 -4 112 -6 113 -6 130 1 161 6 26 3 34 -19 51
l-26 21 12 175 c7 97 13 175 15 173 1 -1 8 -37 14 -79z"/>
<path d="M7343 2040 c-12 -5 -24 -18 -28 -29 -3 -12 -15 -26 -26 -31 -10 -6
-19 -20 -19 -31 0 -24 60 -89 83 -89 24 0 56 60 50 93 -4 21 1 35 18 53 20 21
21 27 9 34 -18 12 -58 12 -87 0z"/>
<path d="M2867 2124 c-4 -4 -17 -7 -29 -8 -20 -1 -24 -8 -29 -51 -4 -27 -10
-62 -14 -77 -5 -21 -3 -29 9 -34 20 -8 20 -41 1 -74 -20 -34 -18 -63 4 -91 14
-19 18 -42 18 -115 0 -50 6 -100 12 -112 6 -11 11 -52 11 -90 0 -57 4 -72 21
-88 21 -19 21 -18 41 6 16 20 19 35 15 75 -3 29 1 65 8 85 23 61 26 91 15 126
-10 28 -9 42 4 75 22 54 20 66 -10 94 -25 23 -26 29 -19 77 11 72 6 172 -10
197 -7 12 -38 15 -48 5z m39 -59 c6 -66 6 -77 -1 -146 -7 -63 -6 -66 19 -86
32 -25 32 -32 5 -78 -20 -33 -21 -40 -9 -76 11 -34 11 -48 1 -82 -8 -23 -15
-71 -18 -107 -8 -123 -21 -120 -34 7 -5 48 -11 104 -14 123 -3 19 -5 64 -4 98
0 48 -4 69 -17 83 -16 18 -16 24 -5 62 16 52 17 97 3 106 -7 4 -9 27 -5 62 5
49 9 57 32 66 38 15 44 11 47 -32z"/>
<path d="M5191 2099 c-11 -12 -27 -55 -36 -98 -9 -42 -22 -92 -29 -111 -7 -19
-16 -52 -20 -72 -4 -23 -14 -39 -25 -43 -11 -3 -38 -26 -60 -50 -23 -25 -41
-39 -41 -32 0 6 7 65 16 130 15 106 15 120 2 134 -30 30 -54 7 -88 -85 -25
-65 -35 -82 -40 -67 -4 11 -17 22 -30 25 -18 4 -28 18 -39 54 -18 55 -43 78
-63 58 -8 -8 -13 -45 -13 -105 -1 -56 -6 -101 -14 -116 l-13 -24 -12 29 c-7
16 -18 56 -25 89 -7 33 -17 79 -22 102 -5 23 -9 56 -9 73 0 99 -75 90 -94 -12
-5 -28 -12 -37 -29 -40 -15 -2 -30 -18 -44 -48 -19 -37 -22 -55 -17 -101 4
-42 0 -69 -16 -115 -30 -81 -34 -112 -22 -137 6 -12 13 -35 14 -52 5 -47 33
-44 58 6 12 23 20 50 17 60 -3 10 1 23 9 30 8 6 14 20 14 30 0 21 20 69 29 69
18 -1 33 -23 55 -83 33 -92 58 -132 82 -132 17 0 19 7 19 83 0 50 4 81 10 79
6 -2 11 -20 13 -39 2 -20 11 -43 21 -52 18 -16 20 -16 38 8 21 26 25 102 8
141 -20 46 43 -27 81 -95 30 -54 44 -70 59 -68 12 2 21 12 23 26 3 22 5 22 20
-9 19 -37 86 -69 128 -61 30 5 21 22 -12 22 -13 0 -32 4 -42 9 -9 5 -25 12
-34 15 -15 4 -18 17 -18 72 0 73 16 101 88 155 27 20 39 39 48 75 7 27 24 93
37 148 24 93 39 127 53 114 3 -3 1 -23 -5 -45 -13 -47 -14 -99 -1 -122 6 -12
4 -36 -5 -72 -19 -70 -19 -190 -1 -234 8 -19 18 -35 22 -35 3 0 3 8 -1 18 -15
35 -13 158 3 230 13 60 14 78 3 107 -10 29 -10 44 4 90 23 82 -7 124 -54 74z
m-570 -223 c11 -54 29 -124 39 -155 15 -48 26 -165 21 -221 -2 -17 -23 27 -52
110 -20 57 -61 105 -82 97 -7 -3 -21 -22 -31 -43 -11 -22 -25 -51 -33 -66 -7
-14 -13 -35 -13 -46 0 -11 -7 -33 -15 -48 l-15 -29 0 32 c0 17 -4 35 -10 38
-14 9 -12 35 5 69 28 54 46 133 39 171 -9 52 13 113 47 131 20 10 32 27 40 57
19 64 33 78 37 36 2 -19 12 -78 23 -133z m340 -109 c-12 -75 -19 -142 -16
-149 3 -8 1 -27 -5 -43 l-11 -28 -27 51 c-15 29 -40 66 -55 84 -16 17 -32 39
-38 50 -5 10 -17 18 -26 18 -13 0 -15 -11 -9 -80 8 -82 2 -125 -15 -115 -5 4
-9 21 -9 40 0 19 -5 37 -11 41 -7 4 -8 22 -4 48 3 22 9 86 13 141 7 106 14
109 41 23 10 -29 18 -38 35 -38 15 0 25 -9 33 -30 18 -48 38 -37 63 36 12 37
29 83 38 103 16 35 16 36 20 9 2 -14 -6 -87 -17 -161z"/>
<path d="M6843 2107 c-12 -7 -36 -31 -55 -53 -18 -23 -47 -54 -65 -69 -21 -17
-35 -39 -39 -63 -3 -20 -15 -51 -25 -68 -24 -40 -24 -71 1 -109 15 -23 20 -47
20 -107 0 -79 15 -113 44 -102 16 6 86 -33 104 -59 12 -16 22 -17 70 -11 73 9
109 32 166 105 64 82 68 110 22 176 -35 51 -35 53 -21 87 52 124 -38 285 -160
285 -22 0 -50 -5 -62 -12z m96 -22 c51 -18 71 -37 90 -84 22 -58 24 -107 7
-157 -17 -50 -16 -54 30 -122 31 -46 27 -65 -31 -141 -46 -60 -71 -75 -141
-86 -32 -5 -43 -3 -47 9 -7 17 -67 47 -112 56 l-30 5 0 80 c0 60 -5 86 -18
105 -22 32 -22 57 3 105 11 22 20 49 20 61 0 13 14 34 33 49 17 15 47 46 65
69 26 33 54 53 88 66 1 0 20 -7 43 -15z"/>
<path d="M6845 1968 c-30 -18 -44 -40 -45 -73 0 -16 -11 -47 -24 -68 -20 -33
-22 -44 -14 -80 11 -49 24 -67 48 -67 10 0 23 -13 30 -30 14 -34 34 -43 75
-32 27 8 30 12 27 43 -2 19 -4 64 -5 101 -2 59 -5 68 -30 88 -25 20 -28 28
-25 73 3 53 -5 63 -37 45z m7 -60 c-5 -39 -2 -44 31 -72 36 -30 36 -32 25 -69
-9 -29 -9 -46 0 -71 17 -46 15 -56 -11 -56 -15 0 -29 11 -41 31 -10 16 -29 34
-42 39 -14 6 -24 18 -24 29 0 11 -2 26 -5 33 -3 8 6 31 20 52 14 21 25 51 25
69 0 26 14 57 26 57 1 0 0 -19 -4 -42z"/>
<path d="M3327 2103 c-13 -13 47 -33 99 -33 86 0 64 -37 -27 -46 -70 -7 -102
-23 -95 -47 3 -12 -8 -29 -32 -50 -77 -68 -92 -86 -92 -112 0 -14 7 -28 15
-31 20 -8 19 -30 -4 -62 -30 -43 -33 -77 -12 -103 l19 -24 33 19 c45 27 105
28 155 3 38 -19 43 -19 72 -4 30 15 32 14 32 -4 0 -27 -42 -51 -75 -43 -19 5
-35 1 -55 -15 -16 -11 -43 -21 -59 -21 -33 0 -62 -30 -88 -90 l-15 -35 -10 35
c-5 19 -16 42 -24 51 -8 8 -14 27 -14 40 0 34 -18 49 -57 49 -31 0 -33 2 -27
28 4 15 11 31 15 36 14 15 11 56 -4 56 -7 0 -18 -5 -25 -12 -22 -22 -12 7 18
52 29 43 39 80 22 80 -4 0 -13 -15 -20 -34 -7 -18 -21 -41 -32 -51 -23 -21
-27 -73 -6 -81 10 -4 12 -18 8 -49 l-4 -44 38 -3 c35 -3 39 -6 45 -38 4 -18
14 -39 23 -46 9 -6 16 -25 16 -41 0 -34 22 -58 45 -49 8 3 23 22 32 43 23 51
52 83 69 76 8 -3 30 4 49 16 20 12 53 21 75 21 31 0 43 6 65 31 31 38 30 73
-4 77 -13 2 -28 -1 -34 -7 -17 -17 -46 -13 -78 10 -20 14 -36 18 -51 13 -13
-4 -33 -7 -46 -5 -13 1 -34 -5 -47 -13 -53 -35 -59 -8 -18 71 l28 52 -23 24
c-12 13 -20 30 -17 38 3 8 35 41 71 73 37 33 63 64 60 71 -6 17 15 25 68 25
53 0 99 31 94 64 -3 18 -11 21 -63 24 -33 2 -64 7 -69 13 -12 10 -30 12 -39 2z"/>
<path d="M1637 2074 c-16 -8 -25 -20 -21 -26 4 -6 3 -8 -3 -5 -15 9 -36 -20
-29 -38 3 -9 2 -14 -3 -11 -13 8 -23 -23 -15 -47 4 -13 2 -17 -5 -13 -8 5 -11
-16 -11 -68 0 -45 4 -76 10 -76 6 0 8 -11 4 -26 -5 -21 -4 -25 6 -19 10 6 12
4 7 -9 -8 -21 30 -99 43 -91 6 3 7 -1 4 -10 -7 -17 74 -105 97 -105 8 0 6 6
-7 15 -18 14 -17 15 8 4 15 -7 25 -16 21 -22 -3 -5 3 -6 17 -2 15 5 20 4 16
-4 -4 -6 0 -11 9 -11 9 0 14 4 11 9 -3 5 5 29 19 53 31 54 33 108 4 134 -29
25 -79 132 -79 167 0 15 7 30 15 33 21 8 19 31 -9 91 -23 50 -58 93 -73 93 -5
-1 -21 -8 -36 -16z"/>
<path d="M7777 1633 c-4 -38 -4 -78 -1 -89 3 -12 -1 -35 -9 -50 -9 -17 -18
-76 -22 -139 -4 -60 -14 -126 -21 -145 -13 -32 -14 -23 -8 88 4 87 2 132 -6
153 -10 23 -10 36 -1 55 9 20 8 31 -5 56 -12 24 -14 36 -5 55 14 32 14 43 -2
43 -22 0 -36 -62 -22 -96 8 -19 9 -40 3 -61 -6 -22 -5 -40 3 -54 7 -14 9 -60
5 -143 -7 -125 2 -171 33 -171 22 0 48 107 56 225 4 61 11 113 17 116 5 3 9
31 8 62 -1 32 2 81 6 110 5 42 4 52 -8 52 -11 0 -17 -17 -21 -67z"/>
<path d="M8222 1564 l3 -38 -70 -29 c-75 -30 -90 -44 -72 -66 9 -11 9 -15 -3
-19 -8 -3 -35 -24 -60 -48 l-45 -42 14 -38 14 -38 -57 -51 c-31 -28 -56 -56
-56 -62 0 -6 -9 -14 -20 -18 -11 -3 -32 -25 -47 -47 -16 -23 -46 -51 -67 -63
-65 -36 -165 -124 -172 -151 -8 -31 1 -54 22 -54 14 0 75 42 113 78 28 27 57
40 114 52 54 11 64 18 147 100 48 49 91 99 95 112 4 13 26 48 50 78 23 30 46
69 52 85 5 18 31 46 62 70 61 46 52 59 -14 20 -41 -24 -75 -67 -75 -95 0 -7
-18 -32 -39 -56 -21 -25 -47 -61 -56 -81 -10 -20 -53 -71 -96 -114 -60 -60
-87 -80 -121 -89 -83 -21 -100 -30 -162 -85 -35 -30 -66 -55 -69 -55 -3 0 -3
9 0 20 7 27 96 106 159 142 29 16 63 46 78 68 14 21 34 41 46 45 11 3 20 12
20 18 0 7 27 38 60 70 33 32 60 64 60 71 0 6 -7 21 -15 32 -12 18 -12 24 1 42
8 12 36 36 62 53 26 18 49 34 52 36 3 3 -3 11 -13 18 -17 12 -15 15 28 34 26
12 53 21 59 21 22 0 36 24 36 61 0 21 -5 41 -11 45 -7 4 -10 -6 -7 -32z"/>
<path d="M2264 1464 c3 -9 9 -26 12 -38 4 -16 26 -33 72 -55 89 -43 133 -85
203 -195 51 -80 65 -94 116 -121 32 -17 63 -41 70 -55 7 -14 13 -59 13 -100 0
-47 5 -83 14 -95 7 -11 21 -42 30 -70 15 -48 19 -51 94 -88 42 -20 80 -37 83
-37 9 0 -31 170 -49 210 -9 19 -29 55 -44 78 -14 24 -35 67 -45 95 -15 41 -41
73 -138 170 -66 66 -141 133 -166 149 -26 15 -58 43 -72 62 -18 23 -40 37 -72
46 -26 7 -62 24 -81 37 -41 27 -48 29 -40 7z"/>
<path d="M7020 1404 c-25 -13 -72 -26 -105 -30 -33 -3 -83 -13 -112 -21 -48
-13 -53 -17 -59 -49 -8 -41 0 -112 14 -126 15 -15 44 5 111 73 37 38 64 58 71
54 24 -15 143 -6 163 13 36 32 40 50 17 82 -25 35 -39 35 -100 4z"/>
<path d="M7324 1370 c-5 -5 -26 -18 -45 -27 -20 -10 -62 -48 -93 -85 -59 -71
-82 -83 -131 -74 -109 21 -100 23 -165 -38 -34 -31 -74 -63 -89 -71 -20 -10
-30 -24 -34 -47 -8 -50 8 -57 100 -41 99 17 151 19 237 9 54 -6 67 -5 61 5 -6
9 -3 11 9 6 20 -8 99 29 91 42 -2 5 3 15 13 22 15 13 16 12 3 -3 -18 -24 1
-23 22 0 19 20 23 37 7 27 -16 -10 -11 1 7 16 14 12 16 12 8 0 -6 -10 -4 -12
4 -7 7 5 10 14 7 21 -3 8 3 19 12 27 15 12 16 11 3 -4 -22 -29 -7 -20 25 14
16 17 22 29 14 26 -12 -4 -16 8 -18 66 -4 117 -17 147 -48 116z"/>
<path d="M2265 1279 c4 -12 15 -49 25 -83 10 -33 23 -74 29 -89 6 -16 11 -46
11 -67 0 -21 5 -42 12 -46 7 -5 8 -3 3 6 -5 8 -4 11 3 6 6 -4 8 -14 5 -23 -5
-12 -3 -14 6 -8 10 5 11 2 7 -12 -13 -40 69 -127 122 -128 24 0 27 -3 24 -33
-2 -19 1 -32 8 -32 7 0 9 -8 5 -19 -7 -24 4 -53 18 -44 6 4 8 0 4 -10 -8 -22
2 -49 15 -41 6 4 7 -2 3 -16 -5 -15 -4 -20 4 -16 7 4 9 1 5 -8 -9 -24 32 -91
75 -119 44 -29 56 -33 45 -15 -4 7 -3 8 5 4 6 -4 9 -11 6 -16 -3 -5 3 -14 14
-19 29 -16 38 -13 15 4 -18 14 -17 15 8 4 15 -7 25 -15 23 -19 -7 -11 63 -40
81 -33 12 5 15 3 9 -6 -6 -10 -2 -11 15 -6 17 5 20 4 15 -5 -6 -10 -1 -11 19
-6 15 4 26 2 26 -4 0 -5 9 -10 19 -10 13 0 18 6 17 17 -2 10 3 32 11 50 7 18
13 52 13 75 l0 43 -61 25 c-34 13 -80 36 -103 51 -39 24 -46 35 -78 125 -20
55 -39 121 -42 149 -7 60 -24 78 -95 102 -55 18 -60 23 -81 79 -6 18 -24 45
-39 60 -15 16 -38 44 -51 63 -14 21 -46 44 -84 62 -75 35 -100 38 -91 8z"/>
<path d="M6105 1102 c-72 -34 -67 -37 82 -52 59 -5 149 -15 200 -21 127 -16
136 -10 73 46 l-51 45 -78 0 c-43 0 -98 2 -122 5 -34 4 -57 -1 -104 -23z"/>
<path d="M5165 940 c-17 -7 -16 -9 10 -9 29 -1 31 -3 27 -35 -4 -36 -20 -46
-75 -46 -20 0 -30 -6 -34 -20 -3 -11 -10 -20 -17 -20 -6 0 -4 -5 4 -10 11 -7
2 -10 -32 -10 -43 0 -47 2 -57 31 -11 31 -12 32 -61 26 -40 -5 -50 -3 -50 8 0
8 -5 15 -11 15 -6 0 -9 -8 -7 -17 2 -14 15 -19 54 -21 l51 -3 6 -82 c4 -45 7
-108 7 -140 l0 -58 68 3 67 3 -3 137 -4 137 54 3 53 3 0 55 c0 58 -10 68 -50
50z m-75 -276 l0 -94 -45 0 -45 0 0 88 c0 49 2 91 5 93 2 3 22 5 45 6 l40 2 0
-95z"/>
<path d="M5291 889 c-56 -133 -122 -320 -116 -329 3 -5 33 -10 66 -10 53 0 61
3 70 24 15 33 104 47 125 19 7 -10 13 -13 14 -8 0 24 -18 33 -70 35 -75 3 -77
3 -83 -20 -4 -16 -14 -20 -51 -20 -25 0 -46 2 -46 4 0 3 14 43 31 90 l31 86
45 0 c41 0 44 -2 38 -22 -12 -38 -11 -40 20 -49 46 -13 58 -5 51 36 l-7 35 43
-3 42 -2 28 -75 c44 -118 43 -110 8 -110 -18 0 -29 -4 -25 -10 3 -5 22 -10 41
-10 35 0 35 1 29 33 -8 34 -72 217 -100 281 -17 41 -32 45 -17 5 5 -13 12 -36
16 -51 5 -24 3 -28 -15 -28 -11 0 -36 7 -55 16 -28 14 -37 14 -50 3 -13 -10
-17 -10 -24 0 -4 8 -12 11 -18 7 -19 -12 -21 10 -6 59 21 70 12 78 -15 14z"/>
<path d="M5611 933 c46 -4 47 -4 53 -46 4 -26 3 -43 -4 -45 -5 -2 -7 -9 -3
-15 4 -7 1 -7 -9 1 -11 9 -18 10 -23 2 -3 -5 -1 -10 6 -10 19 0 1 -13 -23 -17
-18 -3 -19 -1 -7 14 12 15 12 16 -2 11 -12 -5 -20 6 -34 45 -10 28 -20 46 -23
39 -4 -14 86 -343 98 -356 15 -15 136 -20 145 -6 21 33 142 366 136 372 -4 5
-36 9 -71 10 l-65 3 -32 -95 c-17 -52 -34 -88 -37 -80 -2 8 -7 29 -11 45 -3
17 -13 54 -21 83 l-15 52 -52 -2 -52 -2 46 -3z m89 -203 c0 -30 18 -33 36 -5
13 20 24 25 60 25 24 0 44 -2 44 -4 0 -2 -15 -44 -34 -93 l-34 -88 -49 2 c-26
1 -53 2 -59 2 -6 1 -21 36 -33 79 -12 42 -24 84 -26 92 -4 12 4 14 45 12 41
-3 50 -7 50 -22z"/>
<path d="M5946 919 c-11 -31 -24 -364 -16 -373 5 -5 35 -10 67 -12 l58 -3 -58
11 c-58 11 -59 12 -53 41 3 16 6 58 6 93 l0 64 108 -6 c153 -7 172 -11 172
-34 0 -19 -5 -19 -89 -13 l-88 6 -7 -27 c-4 -15 -4 -31 -1 -36 4 -6 36 -10 73
-10 94 0 140 -9 145 -29 3 -11 5 -9 6 6 1 26 -9 30 -121 38 -71 6 -85 10 -81
22 5 13 20 14 93 9 l87 -7 7 32 c15 77 16 76 -89 84 -62 4 -93 10 -89 17 5 7
41 9 105 5 l98 -6 7 44 c10 70 8 72 -108 79 -57 3 -131 9 -165 12 -48 5 -64 3
-67 -7z m179 -24 c72 -4 133 -9 136 -10 3 -2 3 -19 1 -38 -3 -26 -8 -34 -20
-31 -10 2 -46 5 -81 8 -39 2 -67 9 -72 17 -7 11 -9 11 -9 1 0 -7 -4 -10 -10
-7 -5 3 -12 -6 -16 -20 -3 -14 -7 -25 -9 -25 -11 0 -53 28 -49 33 3 3 -3 3
-15 0 -19 -5 -21 -1 -21 42 0 39 3 46 18 41 9 -2 76 -8 147 -11z"/>
<path d="M4349 913 c-19 -3 -38 -21 -65 -61 l-39 -56 -9 53 -9 53 -64 -5 c-35
-2 -66 -7 -68 -9 -5 -4 17 -241 31 -346 l5 -43 62 3 62 3 3 50 c5 104 7 105
65 30 l52 -68 78 6 c43 3 81 8 84 10 7 7 -11 33 -81 112 -103 116 -98 107 -71
141 36 44 30 48 -10 7 -40 -41 -41 -45 -18 -64 9 -8 45 -50 80 -94 l64 -80
-28 -6 c-70 -16 -80 -12 -135 56 -28 36 -57 65 -64 65 -26 0 -43 -41 -37 -90
5 -43 4 -48 -18 -53 -56 -15 -66 -10 -73 38 -3 25 -9 64 -12 88 l-6 43 103 12
c56 7 105 14 107 17 5 5 -28 39 -40 41 -4 1 -16 2 -25 4 -11 1 -13 3 -5 7 6 2
12 11 12 19 0 7 12 31 28 53 21 32 35 41 67 46 22 3 53 9 70 12 28 5 29 4 15
-12 -14 -17 -14 -17 8 -4 12 8 22 17 22 21 0 8 -93 8 -141 1z"/>
<path d="M6336 888 c-6 -18 -26 -266 -25 -303 0 -25 2 -27 8 -10 5 11 12 46
16 79 l7 58 41 -6 c23 -3 90 -9 149 -12 71 -5 105 -11 102 -18 -2 -6 5 -29 16
-51 11 -22 20 -31 20 -21 0 9 -5 26 -10 36 -8 15 -5 24 15 44 20 20 25 35 25
73 -1 87 -36 110 -194 129 -141 17 -166 17 -170 2z m149 -24 c109 -8 141 -17
172 -46 28 -26 30 -48 3 -48 -11 0 -20 5 -20 11 0 6 -6 9 -12 6 -7 -2 -12 -10
-10 -17 2 -8 -3 -10 -13 -7 -8 4 -15 2 -15 -4 0 -6 -8 -1 -18 11 -23 29 -89
37 -139 18 -21 -9 -47 -12 -57 -9 -34 13 -33 107 2 97 9 -3 57 -8 107 -12z"/>
<path d="M3822 862 c-95 -34 -134 -89 -134 -187 0 -95 44 -166 124 -200 107
-44 239 17 268 124 15 57 7 64 -65 54 -51 -7 -61 -12 -75 -38 -31 -55 -92 -41
-110 25 -13 48 -5 86 23 105 30 21 44 19 71 -10 21 -23 27 -24 82 -17 70 8 79
27 42 82 -48 70 -135 94 -226 62z m168 -34 c18 -13 34 -31 36 -40 2 -14 -4
-16 -29 -12 -30 5 -31 5 -13 -10 21 -17 15 -20 -21 -10 -13 4 -20 11 -16 17 4
6 1 7 -7 2 -8 -5 -18 -1 -27 10 -7 11 -13 13 -13 6 0 -8 -7 -10 -20 -6 -12 4
-20 2 -20 -5 0 -8 -8 -10 -21 -7 -12 3 -18 3 -15 0 3 -3 1 -14 -4 -24 -8 -13
-21 -18 -49 -16 -34 1 -38 4 -36 24 3 32 24 53 70 74 58 27 143 25 185 -3z
m-178 -205 c20 -78 124 -86 151 -12 4 12 20 18 51 21 52 4 58 -9 31 -62 -27
-53 -71 -75 -153 -76 -85 -2 -123 17 -159 81 -32 56 -30 73 10 78 53 7 60 3
69 -30z"/>
<path d="M6833 840 c-49 -11 -83 -38 -100 -77 -29 -71 1 -115 113 -164 53 -23
74 -37 72 -48 -7 -35 -88 -17 -88 19 0 24 -6 26 -77 35 -47 5 -53 4 -52 -12 0
-10 3 -13 5 -7 3 7 13 10 22 8 9 -1 33 -6 53 -9 25 -4 38 -12 42 -25 12 -45
112 -49 112 -5 0 15 -19 29 -72 55 -96 47 -108 59 -46 48 26 -4 73 -11 103
-14 74 -8 98 -19 111 -48 14 -29 4 -89 -17 -111 -9 -8 -11 -15 -6 -15 20 0 45
41 49 82 6 51 -17 87 -75 118 l-37 20 63 -6 62 -7 0 29 c0 16 -9 44 -20 62
-33 54 -142 90 -217 72z m159 -47 c27 -15 34 -26 36 -58 3 -32 1 -37 -10 -27
-8 6 -24 9 -36 5 -14 -3 -22 -1 -22 7 0 7 7 10 15 6 8 -3 15 -2 15 3 0 19
-156 36 -167 18 -4 -6 -1 -7 7 -2 9 5 11 4 6 -3 -12 -20 -86 -12 -86 9 0 4 7
6 15 3 8 -4 15 -2 15 4 0 6 -6 12 -12 15 -8 2 2 13 22 26 30 19 45 22 102 18
41 -3 79 -12 100 -24z"/>
<path d="M3525 821 c-35 -7 -35 9 1 -226 13 -88 28 -163 32 -166 6 -7 88 4
118 15 7 3 2 65 -15 192 l-26 189 -40 2 c-22 0 -53 -2 -70 -6z m120 -238 c3
-32 9 -68 12 -80 4 -16 0 -25 -13 -30 -11 -3 -21 -10 -24 -14 -3 -5 -15 -6
-27 -3 -17 5 -23 18 -33 72 -6 37 -12 74 -13 82 -1 10 11 17 38 21 22 3 43 7
46 8 4 0 10 -25 14 -56z"/>
<path d="M4639 801 c13 -12 32 -21 43 -21 10 0 16 -4 13 -10 -3 -5 -15 -10
-26 -10 -11 0 -18 -4 -15 -9 3 -5 39 -7 80 -5 71 5 75 4 96 -23 29 -37 20 -88
-21 -126 -25 -23 -33 -26 -45 -16 -12 9 -13 9 -9 -3 5 -12 -4 -17 -38 -21 -53
-7 -117 1 -117 16 0 6 -3 7 -6 4 -11 -11 -43 12 -59 42 -14 27 -13 29 8 35 42
11 66 6 91 -19 28 -28 52 -31 91 -13 20 9 25 18 23 37 -3 24 -11 28 -91 47
-48 12 -100 30 -115 39 l-27 17 26 -26 c23 -24 53 -36 162 -60 33 -8 35 -23 3
-37 -27 -13 -66 3 -66 26 0 12 -15 15 -65 15 -78 0 -89 -13 -59 -69 29 -55 92
-84 174 -78 122 8 191 68 176 155 -9 61 -39 82 -151 106 -33 8 -69 17 -80 21
-17 6 -17 4 4 -14z"/>
<path d="M7125 788 c-2 -7 -13 -76 -24 -153 -12 -77 -23 -152 -26 -167 -2 -16
-1 -28 4 -28 8 0 31 88 31 123 1 50 8 51 146 27 71 -13 132 -26 136 -29 4 -3
3 -12 -1 -20 -7 -11 -21 -11 -90 1 -89 17 -106 11 -99 -34 3 -21 12 -25 98
-40 52 -9 96 -17 98 -17 7 -2 0 -55 -9 -73 -9 -16 -8 -19 2 -16 15 5 26 38 28
80 1 26 -1 27 -99 44 -68 12 -100 22 -100 31 0 16 16 16 105 -1 39 -8 73 -11
77 -8 4 4 11 26 16 50 12 52 9 54 -101 72 -53 9 -75 16 -68 23 7 7 39 5 98 -5
48 -9 92 -14 99 -11 13 5 28 94 17 104 -7 7 -292 59 -321 59 -7 0 -14 -6 -17
-12z m315 -92 c-5 -23 -11 -30 -26 -28 -51 8 -133 16 -172 15 -37 0 -42 2 -37
18 4 11 2 19 -4 19 -6 0 -11 -4 -11 -10 0 -5 -11 -10 -25 -10 -22 0 -25 4 -25
33 0 19 2 36 5 39 3 3 72 -6 153 -20 l149 -25 -7 -31z"/>
<path d="M3200 768 c-58 -11 -109 -23 -113 -28 -8 -7 5 -89 48 -302 7 -36 15
-71 19 -76 3 -6 27 -5 63 2 66 13 69 19 55 95 l-9 51 33 6 c50 9 61 1 79 -61
l16 -57 57 7 c31 4 61 11 66 16 14 12 -21 129 -46 156 -18 19 -19 25 -8 38 17
20 17 93 1 123 -16 30 -69 52 -118 51 -21 -1 -85 -10 -143 -21z m220 -23 c10
-9 20 -25 23 -35 4 -15 -2 -19 -34 -22 -22 -2 -39 -1 -39 2 0 3 -34 5 -75 5
-51 0 -75 -4 -75 -12 0 -21 -21 -25 -39 -9 -15 14 -20 14 -29 3 -7 -8 -8 -17
-4 -22 4 -4 -3 -2 -16 4 -12 7 -20 16 -17 21 3 5 1 18 -4 28 -9 18 -2 21 102
40 124 23 180 22 207 -3z m21 -174 c32 -34 55 -101 37 -112 -6 -4 -7 -12 -4
-18 4 -6 0 -11 -8 -11 -9 0 -16 5 -16 10 0 6 -5 10 -11 10 -5 0 -7 -4 -4 -10
3 -5 3 -10 -2 -10 -16 0 -30 16 -38 40 -15 53 -34 70 -73 70 -20 0 -47 -3 -60
-6 -22 -6 -23 -10 -17 -53 12 -89 13 -86 -20 -83 -16 1 -37 2 -46 3 -9 0 -16
6 -16 12 -1 7 -7 38 -14 70 -14 68 -11 73 61 82 25 3 70 11 100 19 84 21 100
19 131 -13z"/>
<path d="M5342 417 c-7 -8 -24 -18 -38 -21 -15 -4 -22 -11 -18 -18 5 -7 0 -9
-14 -6 -21 6 -21 5 -6 -23 8 -16 19 -27 25 -24 5 4 8 1 7 -7 -4 -16 151 -99
175 -94 10 3 14 0 10 -7 -4 -7 0 -8 11 -4 11 5 15 3 10 -5 -5 -8 -2 -9 10 -5
11 5 15 3 10 -5 -5 -8 -2 -9 10 -5 10 4 15 3 11 -3 -8 -13 70 -51 91 -43 10 4
15 2 11 -3 -4 -6 26 -10 78 -10 46 1 81 5 78 10 -3 4 4 5 15 2 23 -8 74 13 65
27 -3 5 3 6 17 2 16 -5 20 -4 15 5 -5 9 -1 10 15 5 14 -5 20 -3 16 3 -4 6 2 8
16 4 14 -3 19 -1 14 6 -5 8 8 9 44 5 34 -4 50 -2 50 5 0 8 11 9 32 5 24 -5 29
-3 23 7 -6 10 -4 12 8 7 21 -8 49 2 41 14 -3 5 3 6 12 2 10 -3 15 -2 12 3 -4
5 4 9 17 9 13 0 21 -3 19 -6 -6 -11 24 -19 43 -12 11 5 14 3 8 -6 -6 -10 -2
-11 15 -6 17 5 20 4 15 -5 -6 -10 1 -11 28 -6 21 4 38 2 42 -4 3 -5 33 -10 66
-10 41 0 58 3 53 11 -4 8 3 9 26 4 21 -5 30 -4 26 3 -4 6 2 8 14 5 11 -3 20 0
20 6 0 6 12 8 32 4 23 -4 29 -3 24 6 -6 8 -1 10 18 5 14 -3 26 -2 26 2 0 5 21
9 47 9 29 0 47 5 49 13 1 7 0 8 -2 3 -3 -5 -25 2 -49 16 -24 13 -92 37 -152
53 -88 24 -129 30 -218 30 -60 0 -140 5 -177 10 -37 5 -119 11 -182 12 -93 2
-118 -1 -133 -14 -10 -9 -47 -27 -83 -42 l-64 -25 -46 25 c-90 52 -184 85
-255 91 -56 4 -73 2 -83 -10z"/>
<path d="M4055 366 c-16 -8 -43 -28 -59 -45 -17 -17 -36 -31 -43 -31 -7 0 -13
-5 -13 -11 0 -5 5 -7 12 -3 8 5 9 2 5 -10 -8 -20 19 -79 32 -71 5 2 15 -3 22
-13 13 -15 12 -16 -3 -3 -10 7 -18 9 -18 3 0 -14 26 -33 34 -24 4 4 6 0 4 -8
-4 -18 119 -83 145 -76 10 2 14 0 11 -6 -5 -7 2 -9 20 -4 20 5 26 4 20 -5 -5
-9 0 -10 20 -5 14 3 26 3 26 -2 0 -4 42 -7 94 -7 52 0 92 4 89 8 -3 5 5 6 17
2 12 -4 20 -3 17 2 -3 5 9 16 26 26 l32 17 -24 -20 c-13 -11 -18 -20 -12 -20
6 0 25 13 43 28 22 21 31 38 31 60 0 17 4 29 9 26 4 -3 8 29 8 71 0 50 -4 74
-10 70 -7 -4 -9 2 -4 19 4 17 2 26 -6 26 -6 0 -9 -4 -5 -9 3 -6 -8 -6 -27 -1
-77 21 -378 40 -378 24 0 -4 9 -21 20 -39 24 -39 82 -65 163 -72 61 -6 72 -18
32 -33 -16 -6 -42 -4 -82 6 -93 24 -135 49 -166 99 -31 49 -37 51 -82 31z"/>
<path d="M6895 288 c-16 -5 -37 -12 -45 -16 -8 -3 -19 -6 -25 -7 -30 -2 -43
-35 -14 -35 6 0 7 5 3 12 -4 7 -3 8 5 4 6 -4 9 -12 6 -17 -4 -5 10 -16 29 -25
21 -10 37 -27 41 -41 17 -67 152 -162 211 -147 19 5 25 4 20 -5 -5 -8 9 -11
49 -11 36 0 54 4 50 10 -4 7 3 8 21 4 17 -4 25 -3 21 3 -4 6 6 15 21 22 25 11
26 10 8 -4 -23 -17 -14 -20 15 -4 11 5 17 14 14 19 -3 5 0 12 6 16 8 5 9 3 4
-6 -5 -8 -3 -11 6 -8 8 3 14 10 14 16 0 5 4 14 9 19 5 5 6 3 2 -4 -13 -23 10
-13 35 14 18 20 19 24 4 13 -18 -14 -19 -14 -6 2 7 10 17 15 22 12 12 -7 51
15 44 26 -3 5 0 12 6 16 8 5 9 3 4 -6 -5 -8 -3 -11 6 -8 8 3 13 11 11 17 -1 7
2 10 7 6 6 -3 17 9 26 27 l16 33 -21 -25 c-15 -17 -23 -21 -27 -12 -2 6 -9 10
-14 6 -5 -3 -24 -1 -42 5 -17 5 -59 15 -92 22 -33 6 -65 13 -70 16 -6 2 -32
-11 -59 -28 -47 -31 -48 -32 -82 -16 -18 9 -44 32 -56 51 -30 46 -106 60 -183
34z"/>
</g>
</svg>
